<?xml version="1.0" ?><svg baseProfile="tiny" id="Layer_1" version="1.2" viewBox="0 0 512 512" xml:space="preserve" xmlns="http://www.w3.org/2000/svg" xmlns:xlink="http://www.w3.org/1999/xlink"><g id="XMLID_974_"><circle cx="256" cy="256" fill="#EBB342" id="XMLID_878_" r="256"/><path d="M511.8,255.8c0-3.3-0.1-6.5-0.2-9.8L365.8,98.4c0-1.4-1.3-2.6-2.9-2.6h-34.5   c-1.6,0-2.9,1.2-2.9,2.6v5.8l9.1,6.2h-9.1v15.7l-8.4-8.3H152.3c-12.5,0-22.6,10.1-22.6,22.6v155.2l9.1,5.6H125v73.5l9.1,5.6h-4.5   v12.8c0,7.4,3.6,14,9.1,18.1c0.9,1.2,62.2,62.6,99.6,99.9c5.8,0.4,11.6,0.6,17.4,0.6C397.2,511.8,511.8,397.1,511.8,255.8z" fill="#DB9F35" id="XMLID_926_"/><g id="XMLID_86_"><path d="M257.1,338.4l42.1-36.8H125v73.6h174.2L257.1,338.4z M182,357.6h-6.4V330l-0.2,0    l-10.6,27.7h-4.4l-10.8-28.2l-0.2,0.1v28.1H143v-38.5h8.4l11,29.6h0.2l11.1-29.6h8.2V357.6z M216.4,339.7c-2.4,2.2-5.7,3.3-10,3.3    h-8.3v14.6h-6.4v-38.5h14.7c4.2,0,7.6,1.1,10,3.3c2.4,2.2,3.6,5.1,3.6,8.7C220,334.7,218.8,337.6,216.4,339.7z M252.9,349.1h-4.9    v8.5h-6.4v-8.5h-16.1l-0.2-3.9l16.1-26h6.6v24.7h4.9V349.1z" fill="#FFFFFF" id="XMLID_87_"/><polygon fill="#FFFFFF" id="XMLID_137_" points="240.9,329.6 231.7,343.9 241.7,343.9 241.7,328.2 241.5,328.2   "/><path d="M206.4,324.3h-8.3v13.6h8.3c2.4,0,4.2-0.6,5.4-1.9c1.2-1.3,1.8-2.9,1.8-4.8    c0-2-0.6-3.6-1.8-4.9C210.6,324.9,208.8,324.3,206.4,324.3z" fill="#FFFFFF" id="XMLID_136_"/><path d="M384.1,167h-17.9v-34.6h-40.4V167h-17.9c-2.5,0-3.9,2.7-2.2,4.4l38.1,44.1    c1.2,1.1,3.2,1.1,4.3,0l38.1-44.1C387.9,169.7,386.6,167,384.1,167z" fill="#FFFFFF" id="XMLID_135_"/><rect fill="#FFFFFF" height="15.7" id="XMLID_134_" width="40.4" x="325.8" y="110.4"/><path d="M341.6,223.9v166.2c0,9.7-7.8,17.5-17.5,17.5H155.7c-9.7,0-17.5-7.8-17.5-17.5v-9.4h-8.6    v12.8c0,12.5,10.1,22.7,22.7,22.7h175.1c12.5,0,22.7-10.1,22.7-22.7V224c-1.3,0.5-2.7,0.8-4.2,0.8    C344.4,224.8,342.9,224.5,341.6,223.9z" fill="#FFFFFF" id="XMLID_133_"/><path d="M138.3,143.9c0-9.7,7.8-17.5,17.5-17.5h161.6V124v-6.1h-165c-12.5,0-22.7,10.1-22.7,22.7    v155.4h8.6V143.9z" fill="#FFFFFF" id="XMLID_132_"/><path d="M299.1,176.5H163.9V189h145.9L299.5,177C299.3,176.9,299.2,176.7,299.1,176.5z" fill="#FFFFFF" id="XMLID_131_"/><rect fill="#FFFFFF" height="12.5" id="XMLID_130_" width="152.1" x="163.9" y="196.7"/><rect fill="#FFFFFF" height="12.5" id="XMLID_129_" width="152.1" x="163.9" y="216.9"/><rect fill="#FFFFFF" height="12.5" id="XMLID_128_" width="152.1" x="163.9" y="237.1"/><rect fill="#FFFFFF" height="12.5" id="XMLID_127_" width="119.1" x="163.9" y="257.3"/><path d="M366.2,98.4c0-1.4-1.3-2.6-2.9-2.6h-34.6c-1.6,0-2.9,1.2-2.9,2.6v5.8h40.4V98.4z" fill="#FFFFFF" id="XMLID_126_"/></g></g></svg>